# xmcd CD database file
#
# Track frame offsets:
#	150
#	10549
#	29069
#
# Disc length: 541 seconds
#
# Revision: 0
# Processed by: cddbd v1.5.1PL0 Copyright (c) Steve Scherf et al.
# Submitted via: CDex 1.51
#
DISCID=19021b03
DTITLE=Evil Dick and the Congregation - 2005 promo EP
DYEAR=2005
DGENRE=Rhythmic Soul
TTITLE0=Evil Dick and the Congregation - Dead Cat Boogie
TTITLE1=Evil Dick and the Congregation - Fall In
TTITLE2=Evil Dick and the Congregation - Gurl
EXTD=YEAR: 2005
EXTT0=
EXTT1=
EXTT2=
PLAYORDER=
